<?xml version="1.0" standalone="no"?>
<!DOCTYPE svg PUBLIC "-//W3C//DTD SVG 20010904//EN"
 "http://www.w3.org/TR/2001/REC-SVG-20010904/DTD/svg10.dtd">
<svg version="1.0" xmlns="http://www.w3.org/2000/svg"
 width="750.000000pt" height="750.000000pt" viewBox="0 0 750.000000 750.000000"
 preserveAspectRatio="xMidYMid meet">
<metadata>
Created by potrace 1.14, written by Peter Selinger 2001-2017
</metadata>
<g transform="translate(0.000000,750.000000) scale(0.100000,-0.100000)"
fill="#000000" stroke="none">
<path d="M2485 7181 c-3 -5 -2 -12 3 -15 5 -3 9 1 9 9 0 17 -3 19 -12 6z"/>
<path d="M2422 7163 c-6 -2 -9 -9 -6 -15 4 -6 -2 -6 -14 1 -14 7 -23 8 -27 1
-4 -6 -11 -7 -17 -4 -7 5 -8 2 -3 -6 6 -10 3 -12 -14 -7 -15 3 -26 -1 -36 -16
-8 -12 -15 -16 -15 -10 0 7 -7 10 -15 7 -8 -4 -15 -13 -15 -21 0 -8 -4 -12 -9
-8 -5 3 -13 0 -16 -6 -4 -5 -13 -8 -20 -5 -9 3 -12 -2 -10 -15 4 -18 2 -19
-12 -7 -15 11 -16 11 -10 -4 4 -11 2 -18 -5 -18 -13 0 -63 -52 -60 -62 2 -8
-14 -12 -31 -9 -5 1 -6 -3 -3 -8 3 -5 -1 -12 -10 -15 -15 -6 -15 -9 2 -29 14
-15 14 -18 2 -9 -11 9 -18 10 -23 2 -3 -6 -11 -7 -17 -4 -7 4 -8 2 -4 -4 4 -6
14 -9 24 -5 10 3 8 -2 -7 -12 -18 -14 -20 -19 -10 -26 12 -7 11 -9 -1 -10 -8
-1 -17 -1 -20 -1 -3 0 -6 -11 -7 -26 -1 -55 -3 -63 -12 -58 -12 8 -19 -62 -7
-74 7 -7 6 -10 -3 -10 -11 0 -11 -3 0 -17 10 -11 10 -14 2 -9 -15 9 -15 9 -4
-31 7 -22 6 -35 -1 -39 -7 -5 -8 -2 -3 6 5 9 4 11 -3 6 -9 -5 -8 -14 4 -31 11
-18 12 -25 3 -31 -8 -5 -9 -3 -4 6 5 9 4 11 -4 6 -8 -5 -9 -12 -3 -19 5 -7 8
-21 6 -32 -2 -11 1 -35 6 -52 5 -22 5 -35 -2 -39 -7 -4 -8 -2 -4 4 4 7 2 12
-3 12 -16 0 -13 -11 7 -33 10 -13 11 -17 3 -12 -11 6 -13 4 -8 -7 3 -9 0 -21
-6 -28 -9 -10 -9 -11 2 -5 11 6 13 4 7 -11 -21 -53 -21 -50 -1 -34 17 13 18
13 10 0 -4 -8 -15 -24 -24 -34 -15 -18 -15 -18 6 -7 19 10 22 9 17 -4 -4 -8
-11 -15 -18 -15 -7 0 -6 -4 3 -9 9 -6 10 -11 2 -15 -14 -9 -14 -26 0 -26 5 0
7 5 3 12 -5 7 -3 8 5 4 9 -6 9 -12 -3 -25 -9 -10 -16 -22 -16 -27 0 -5 5 -2
10 6 8 12 10 13 10 1 0 -8 -7 -22 -15 -31 -13 -14 -13 -17 0 -17 8 0 11 5 8
10 -4 6 -1 7 6 3 9 -6 8 -13 -5 -28 -16 -16 -16 -21 -4 -28 8 -6 12 -10 8 -10
-4 0 -3 -14 2 -31 7 -25 7 -29 -4 -20 -9 8 -13 7 -13 -4 0 -8 5 -15 11 -15 6
0 5 -5 -2 -12 -15 -15 -15 -28 -1 -28 5 0 7 5 3 12 -5 7 -3 8 5 3 9 -5 6 -14
-11 -33 -13 -15 -16 -21 -7 -14 15 11 16 9 13 -20 -1 -18 -3 -33 -4 -33 -1 0
-3 -8 -5 -17 -2 -10 2 -18 8 -18 8 0 7 -4 -1 -12 -15 -15 -15 -28 -1 -28 5 0
7 5 3 12 -5 7 -3 8 5 4 9 -6 8 -13 -6 -29 -10 -11 -12 -17 -5 -13 7 4 12 1 12
-9 0 -9 -4 -14 -8 -11 -5 3 -9 -1 -9 -9 0 -8 5 -12 10 -8 5 3 6 -4 2 -17 -5
-17 -4 -21 6 -16 8 4 6 1 -3 -6 -15 -13 -15 -15 0 -26 9 -7 11 -10 5 -7 -7 3
-13 1 -13 -5 0 -6 -5 -8 -12 -4 -7 5 -8 3 -4 -5 5 -7 15 -10 23 -6 14 5 14 3
2 -11 -15 -19 -21 -47 -8 -38 5 3 9 -2 9 -11 0 -9 -4 -14 -8 -11 -5 3 -9 -1
-9 -9 0 -8 4 -12 9 -9 10 6 11 -10 1 -20 -12 -11 -11 -56 1 -56 6 0 5 -5 -2
-12 -7 -7 -12 -17 -12 -22 0 -6 5 -4 10 4 8 13 10 12 10 -2 0 -10 -5 -18 -12
-18 -6 0 -3 -7 8 -16 10 -8 14 -13 7 -10 -6 4 -14 2 -18 -4 -3 -5 0 -10 7 -10
8 -1 5 -7 -7 -17 -15 -12 -16 -14 -3 -10 12 4 16 1 15 -14 -1 -10 -4 -19 -7
-19 -4 0 -7 -7 -7 -15 0 -12 3 -12 16 -2 12 9 11 5 -3 -17 -10 -16 -13 -25 -7
-22 14 9 14 -14 1 -49 -9 -24 -8 -27 7 -21 17 6 17 5 1 -7 -15 -12 -15 -14 0
-25 9 -7 12 -10 5 -7 -6 3 -14 1 -18 -5 -3 -5 0 -10 7 -10 8 -1 5 -7 -7 -17
-14 -11 -15 -14 -4 -10 14 4 17 -2 16 -34 -1 -31 -4 -39 -16 -34 -9 3 -5 -3 8
-14 23 -18 23 -19 5 -29 -13 -8 -14 -11 -5 -12 8 0 11 -3 8 -7 -4 -3 -2 -12 4
-19 9 -11 7 -15 -5 -20 -15 -6 -15 -8 1 -21 10 -8 13 -12 6 -9 -6 4 -14 2 -18
-4 -3 -5 0 -10 7 -10 8 -1 5 -7 -7 -17 -14 -11 -15 -14 -4 -10 14 4 17 -2 16
-34 -1 -31 -4 -39 -16 -34 -9 3 -5 -3 8 -14 23 -18 23 -19 5 -29 -13 -8 -15
-11 -4 -12 11 0 11 -3 2 -12 -15 -15 -15 -28 -1 -28 5 0 7 5 3 12 -4 7 -3 8 5
4 9 -6 9 -11 -1 -23 -14 -17 -20 -43 -9 -43 6 0 5 -50 -3 -117 -2 -19 1 -33 7
-33 7 0 7 -4 -1 -12 -15 -15 -15 -28 -1 -28 5 0 7 5 3 12 -5 7 -3 8 6 3 10 -6
10 -10 -3 -20 -14 -10 -14 -12 1 -23 9 -7 12 -10 5 -7 -6 3 -14 1 -18 -5 -3
-5 0 -10 7 -10 8 -1 5 -7 -7 -17 -14 -11 -15 -14 -4 -10 12 4 16 -1 17 -19 0
-21 -3 -23 -17 -12 -14 11 -14 11 -4 -3 7 -9 9 -20 5 -24 -4 -5 -1 -5 6 -1 6
4 12 3 12 -3 0 -5 -6 -12 -12 -14 -10 -4 -9 -6 1 -6 11 -1 11 -4 0 -18 -12
-14 -12 -15 0 -9 10 7 12 3 6 -14 -5 -17 -4 -21 5 -15 9 6 11 4 6 -4 -5 -7
-15 -10 -25 -7 -9 4 -5 -3 9 -15 14 -11 19 -18 13 -14 -7 3 -13 1 -13 -5 0 -6
-5 -8 -12 -4 -7 5 -8 3 -4 -5 5 -7 15 -10 24 -6 12 4 12 1 -4 -16 -10 -12 -13
-19 -6 -15 7 4 12 1 12 -9 0 -9 -4 -14 -8 -11 -5 3 -9 -1 -9 -9 0 -8 4 -12 7
-10 4 3 8 -7 8 -20 0 -14 -6 -25 -12 -25 -6 0 -5 -4 3 -9 9 -6 10 -11 2 -15
-14 -9 -14 -26 0 -26 5 0 7 5 3 12 -5 7 -3 8 5 3 9 -5 6 -14 -11 -33 -13 -15
-16 -21 -7 -14 14 10 18 10 22 -2 4 -9 1 -18 -5 -22 -7 -4 -8 -3 -4 4 5 8 1
10 -10 5 -15 -5 -15 -7 0 -15 9 -5 13 -14 9 -21 -12 -19 -12 -37 0 -37 8 0 7
-4 -1 -12 -15 -15 -15 -28 -1 -28 5 0 7 5 3 12 -5 7 -3 8 5 3 9 -5 6 -14 -11
-33 -13 -15 -16 -21 -7 -14 14 10 18 10 22 -2 4 -9 1 -18 -5 -22 -7 -4 -8 -3
-4 4 5 8 1 10 -10 5 -15 -5 -15 -7 0 -15 9 -5 13 -14 9 -21 -12 -19 -12 -37 0
-37 8 0 7 -4 -1 -12 -15 -15 -15 -28 -1 -28 5 0 7 5 3 12 -4 7 -3 8 5 4 9 -6
9 -11 -1 -23 -6 -8 -13 -24 -15 -35 -3 -18 -1 -19 14 -7 17 13 17 13 0 -13
-22 -34 -22 -44 0 -27 15 13 15 12 6 -5 -6 -12 -7 -31 -3 -48 6 -17 5 -30 -2
-34 -7 -4 -8 -2 -4 4 5 8 1 10 -10 5 -11 -4 -13 -8 -6 -11 7 -2 9 -9 5 -15 -4
-7 0 -8 12 -3 15 6 16 4 4 -10 -15 -18 -21 -44 -10 -44 7 0 6 -77 -3 -123 -3
-16 -1 -25 5 -22 14 9 11 -7 -6 -25 -13 -14 -13 -17 0 -17 8 0 11 5 8 10 -3 6
-1 7 6 3 9 -6 9 -11 -1 -23 -13 -16 -21 -46 -9 -39 4 3 8 -11 8 -30 1 -18 -2
-32 -6 -29 -4 2 -8 -2 -8 -10 0 -8 4 -12 9 -9 4 3 8 -2 8 -11 0 -9 -4 -14 -9
-10 -5 3 -13 1 -16 -5 -4 -6 -1 -9 6 -8 15 4 31 -50 17 -58 -7 -5 -8 -2 -3 6
5 9 4 11 -3 6 -7 -4 -12 0 -12 10 0 10 -3 14 -7 11 -10 -11 19 -57 31 -50 6 4
4 -1 -4 -11 -16 -20 -23 -49 -10 -41 10 6 6 -57 -5 -75 -5 -9 -4 -11 3 -6 7 4
12 1 12 -9 0 -9 -4 -14 -8 -11 -5 3 -9 -1 -9 -9 0 -8 5 -11 10 -8 6 4 8 0 4
-9 -3 -9 -1 -20 5 -26 6 -6 6 -12 -3 -17 -8 -5 -10 -4 -5 3 4 7 3 12 -3 12 -5
0 -9 -9 -8 -20 1 -13 6 -19 16 -15 12 5 12 3 0 -11 -15 -18 -21 -44 -10 -44 7
0 6 -70 -3 -107 -3 -13 -1 -25 5 -28 5 -4 9 -11 9 -16 0 -6 -4 -8 -8 -5 -4 2
-9 -4 -9 -15 -1 -10 3 -19 8 -19 6 0 7 5 3 12 -4 7 -3 8 5 4 9 -6 9 -11 -1
-23 -14 -17 -20 -43 -9 -43 6 0 5 -50 -3 -117 -2 -19 1 -33 7 -33 5 0 3 -8 -6
-18 -14 -15 -15 -19 -2 -19 8 0 11 5 8 10 -3 6 -1 7 6 3 9 -6 9 -11 -1 -23
-14 -17 -20 -46 -8 -38 10 6 6 -57 -5 -75 -5 -9 -4 -11 3 -6 7 4 12 1 12 -9 0
-10 -5 -13 -12 -9 -10 6 -10 4 -2 -7 17 -22 23 -58 12 -66 -7 -3 -8 -1 -4 5 4
7 3 12 -3 12 -5 0 -9 -9 -8 -20 1 -13 6 -19 16 -15 12 5 12 3 0 -11 -14 -18
-22 -47 -10 -39 10 5 5 -101 -5 -117 -5 -7 -3 -8 6 -3 10 6 12 4 7 -7 -3 -9
-1 -20 5 -26 6 -6 6 -12 -3 -17 -8 -5 -10 -4 -5 3 4 7 3 12 -3 12 -5 0 -9 -9
-8 -20 1 -13 6 -19 16 -15 12 5 12 3 0 -11 -16 -20 -21 -47 -6 -37 7 4 8 0 4
-12 -4 -9 -3 -23 3 -30 8 -9 8 -15 0 -20 -8 -5 -7 -11 2 -23 10 -12 10 -14 1
-8 -8 4 -13 1 -13 -9 0 -10 5 -13 13 -9 7 5 6 1 -3 -10 -15 -19 -23 -49 -11
-42 4 3 8 -11 8 -30 1 -18 -2 -32 -6 -30 -4 3 -8 -5 -8 -17 -2 -17 0 -19 7 -7
8 13 10 12 10 -2 0 -10 -5 -18 -12 -18 -6 0 -4 -6 7 -13 13 -10 15 -16 6 -21
-9 -6 -9 -11 1 -24 10 -12 10 -14 1 -8 -17 9 -17 -6 0 -23 10 -11 9 -12 -1 -7
-9 6 -11 1 -8 -20 3 -15 0 -36 -6 -47 -8 -16 -8 -19 5 -14 13 5 14 1 7 -24 -5
-16 -6 -29 -2 -29 4 0 0 -5 -8 -10 -8 -5 -10 -10 -4 -10 15 0 24 -49 11 -57
-6 -3 -7 -1 -3 5 4 7 2 12 -3 12 -13 0 -14 -17 -2 -24 5 -4 9 -27 9 -52 0 -41
-1 -44 -16 -32 -15 11 -15 11 -5 -3 7 -9 9 -20 5 -24 -4 -5 0 -6 9 -3 11 4 15
0 14 -13 -1 -10 -5 -22 -10 -26 -4 -5 -5 -2 -1 5 4 6 3 12 -3 12 -5 0 -9 -9
-8 -19 0 -11 4 -18 8 -15 4 2 9 -5 12 -16 3 -11 0 -23 -5 -27 -6 -3 -8 -2 -5
4 3 5 0 10 -8 10 -13 0 -12 -3 1 -18 14 -16 15 -21 3 -36 -12 -15 -12 -16 4
-10 14 5 16 3 9 -11 -9 -21 -8 -64 3 -82 5 -9 4 -11 -3 -6 -12 7 -17 -8 -12
-29 6 -18 11 -79 10 -112 0 -17 5 -37 13 -45 7 -7 13 -24 13 -38 0 -18 5 -25
17 -24 14 2 15 -1 6 -12 -9 -11 -8 -14 5 -14 9 0 16 -5 16 -11 0 -6 -7 -8 -16
-5 -14 5 -15 4 -4 -9 7 -8 17 -12 23 -8 6 4 8 0 4 -10 -4 -12 -1 -17 11 -17
15 0 15 -2 2 -10 -13 -8 -13 -10 2 -10 10 0 20 -10 24 -25 3 -13 15 -27 25
-30 17 -6 23 -16 21 -36 -1 -3 6 -6 13 -6 12 0 12 3 2 16 -11 14 -10 14 6 2 9
-7 17 -18 17 -24 0 -14 32 -36 53 -37 10 0 15 -5 12 -10 -3 -6 3 -10 15 -10
12 0 19 -4 16 -9 -3 -5 9 -8 28 -7 27 1 33 -2 31 -16 -3 -11 1 -15 11 -11 8 3
22 -1 31 -8 12 -10 15 -10 9 -1 -9 16 6 16 23 0 8 -7 11 -8 8 -2 -3 6 0 11 8
11 8 0 12 -4 9 -9 -7 -11 48 -6 66 6 13 9 13 9 2 -6 -8 -10 -9 -19 -3 -22 5
-3 12 0 14 6 4 10 6 9 6 -1 1 -11 4 -11 17 0 9 7 18 9 22 3 10 -13 35 -17 27
-4 -8 12 5 13 24 1 9 -6 22 -6 33 0 13 7 18 6 18 -3 0 -9 3 -9 10 2 5 8 10 10
10 4 0 -14 32 -13 43 1 4 6 10 5 16 -4 8 -12 12 -12 24 -2 10 8 17 9 22 1 4
-6 12 -7 23 -1 11 6 24 6 34 0 10 -6 19 -6 23 0 3 6 15 7 28 2 14 -6 30 -5 41
1 10 6 21 6 25 2 8 -12 34 -17 27 -5 -4 5 3 9 14 8 11 -1 20 -6 20 -12 0 -5 5
-3 10 5 9 13 10 13 10 0 0 -13 1 -13 10 0 9 13 10 13 10 0 0 -13 1 -13 10 0 8
12 10 12 10 1 0 -11 3 -11 16 0 9 7 18 9 22 3 9 -11 35 -17 28 -6 -3 5 11 8
29 8 19 -1 35 -5 35 -9 0 -4 10 -2 22 4 17 9 23 9 26 0 3 -9 7 -9 18 0 11 9
14 9 14 0 0 -9 5 -9 21 0 17 9 23 8 30 -2 7 -11 9 -11 9 1 0 9 3 11 8 5 9 -12
36 -19 28 -7 -3 5 8 9 24 8 17 -1 30 -4 30 -8 0 -4 11 -3 25 2 16 6 25 6 25
-1 0 -6 7 -6 20 1 14 8 20 8 20 0 0 -7 7 -7 21 1 17 9 23 8 30 -2 6 -10 9 -10
9 -2 0 9 7 10 23 5 29 -11 59 -4 51 11 -3 7 0 5 8 -3 14 -16 43 -26 34 -12 -3
5 8 9 24 8 17 -1 30 -4 30 -8 0 -4 11 -3 25 2 17 7 25 6 25 -1 0 -8 4 -8 13
-1 6 5 21 6 32 2 11 -4 28 -3 39 2 10 6 21 6 25 2 9 -13 34 -16 26 -4 -8 13 1
13 27 -1 15 -8 19 -8 14 0 -4 6 -2 11 3 11 6 0 11 -6 11 -12 0 -9 4 -8 10 2 9
13 10 13 10 0 0 -13 1 -13 10 0 8 12 10 12 10 1 0 -10 3 -11 13 -2 10 8 17 7
27 -2 10 -9 11 -9 6 1 -4 6 -2 12 3 12 6 0 11 -5 11 -11 0 -5 5 -7 12 -3 16
10 68 13 68 5 0 -10 31 -8 48 3 7 4 12 2 12 -5 0 -8 4 -8 15 1 11 9 15 9 15 1
0 -7 5 -9 12 -5 21 13 58 13 58 1 0 -7 4 -6 10 3 5 8 10 11 10 5 0 -11 112
-11 129 0 6 3 11 1 11 -5 0 -6 5 -8 12 -4 19 12 68 12 68 0 0 -6 5 -4 10 4 7
11 10 11 10 2 0 -10 5 -10 21 -1 16 8 20 8 14 -1 -6 -9 -2 -9 16 0 18 10 24
10 27 1 3 -9 8 -9 20 1 13 11 14 11 7 -2 -8 -13 -7 -13 9 -1 15 12 19 13 26 1
6 -10 12 -11 22 -3 7 6 22 9 33 7 35 -7 49 -7 68 1 9 4 17 3 17 -2 0 -5 7 -10
15 -10 8 0 12 4 9 9 -7 11 3 10 28 -3 15 -8 19 -8 14 0 -4 6 -2 11 3 11 6 0
11 -6 11 -12 0 -9 4 -8 10 2 9 13 10 13 10 0 0 -13 1 -13 10 0 8 12 10 12 10
1 0 -11 3 -11 15 -1 10 8 15 9 15 2 0 -6 7 -9 15 -6 8 4 12 10 9 15 -8 14 3
10 20 -7 9 -9 16 -11 16 -4 0 6 4 8 10 5 6 -3 7 1 4 9 -3 9 -1 16 5 16 6 0 11
-4 11 -10 0 -5 5 -10 11 -10 5 0 7 4 4 10 -3 5 0 7 8 4 8 -3 18 -1 21 5 4 7
15 7 30 1 27 -10 40 -2 26 15 -8 9 -3 12 16 9 14 -1 41 6 59 16 18 10 35 16
38 13 3 -3 12 4 19 16 7 12 19 21 26 21 8 0 10 5 6 12 -5 7 -2 9 9 5 12 -4 15
-1 12 14 -4 18 -2 19 12 7 12 -9 15 -9 9 0 -4 7 -2 12 6 12 16 0 43 40 40 57
-2 7 3 10 12 7 11 -4 14 1 12 19 -2 17 2 24 13 23 11 -1 15 6 13 20 -2 13 4
24 14 28 13 5 14 9 4 21 -11 13 -10 14 5 9 12 -5 16 -4 11 4 -3 6 -2 13 3 16
5 3 7 16 3 28 -3 14 -2 19 6 14 7 -4 12 -2 12 3 0 6 -6 11 -12 11 -8 1 -6 6 4
14 10 7 15 16 11 19 -9 10 -8 121 2 137 5 8 4 11 -2 7 -6 -4 -9 10 -8 38 2 36
-1 45 -14 45 -14 0 -14 2 -1 10 12 8 12 10 -5 11 -19 0 -19 1 -1 8 19 7 19 8
1 15 -16 6 -17 9 -5 16 13 9 13 10 0 11 -8 1 -19 1 -24 0 -5 -1 -4 5 4 13 9
12 9 16 1 16 -7 0 -9 5 -6 10 3 6 -2 10 -12 10 -15 0 -16 2 -3 10 12 8 12 10
-5 11 l-20 0 20 9 c16 7 16 9 4 9 -9 1 -20 8 -23 17 -3 8 -10 13 -15 9 -6 -3
-8 4 -6 15 2 12 0 18 -6 14 -6 -3 -13 3 -16 14 -2 11 -16 25 -29 31 -14 6 -23
15 -19 21 3 5 -3 7 -14 5 -14 -3 -18 1 -14 11 4 10 0 12 -13 7 -12 -4 -15 -3
-10 5 5 8 0 12 -12 12 -11 0 -25 7 -32 15 -7 9 -15 13 -18 10 -3 -3 -12 4 -20
16 -11 16 -17 17 -28 8 -8 -7 -14 -7 -14 -1 0 5 -7 13 -16 16 -10 4 -13 2 -8
-6 4 -6 3 -8 -4 -4 -5 3 -13 0 -16 -6 -3 -7 -4 -4 -1 7 5 19 0 21 -55 20 -33
0 -60 4 -60 10 0 6 -4 4 -9 -4 -7 -11 -10 -11 -15 0 -4 10 -8 11 -12 2 -3 -8
-15 -9 -35 -3 -16 5 -29 5 -29 0 0 -5 -13 -5 -30 0 -16 5 -30 6 -30 2 0 -8
-227 -5 -247 2 -7 3 -13 2 -13 -3 0 -4 -11 -6 -25 -3 -14 2 -22 9 -19 16 3 6
-2 2 -10 -8 -12 -15 -16 -16 -16 -5 0 8 -3 10 -8 4 -8 -11 -82 -14 -82 -4 0 4
-18 3 -40 -1 -26 -5 -41 -3 -44 4 -3 8 -5 8 -5 0 -1 -8 -12 -9 -36 -4 -19 4
-35 4 -35 0 0 -5 -13 -5 -30 0 -18 5 -30 5 -30 -1 0 -5 -5 -9 -11 -9 -5 0 -8
4 -5 8 3 5 -14 6 -37 3 -23 -4 -61 -4 -85 -1 -24 4 -45 3 -47 -1 -3 -4 -21 -3
-40 1 -19 4 -35 4 -35 0 0 -4 -11 -5 -25 -2 -14 2 -22 9 -19 16 3 6 -1 3 -9
-7 -11 -14 -16 -15 -20 -5 -3 7 -6 8 -6 2 -1 -8 -14 -9 -41 -4 -24 4 -43 3
-46 -2 -4 -6 -10 -5 -15 3 -6 10 -9 10 -9 2 0 -7 -7 -10 -15 -7 -8 4 -12 11
-9 18 3 6 -1 3 -9 -7 -11 -14 -16 -15 -20 -5 -4 10 -6 10 -6 -1 -1 -11 -4 -11
-16 -1 -10 8 -15 9 -15 2 0 -8 -8 -8 -22 -3 -13 4 -35 5 -50 0 -21 -6 -28 -4
-31 9 -4 13 -5 13 -6 -3 -1 -17 -3 -18 -11 -5 -7 11 -10 11 -10 2 0 -10 -5
-10 -20 -2 -15 8 -20 8 -20 -1 0 -8 -4 -8 -15 1 -9 8 -15 8 -15 2 0 -7 -10 -8
-30 -2 -16 5 -30 6 -30 2 0 -4 -40 -7 -89 -7 -74 0 -88 2 -84 15 3 9 -1 8 -11
-4 -9 -11 -16 -15 -16 -9 0 6 -9 9 -19 6 -28 -7 -33 28 -6 45 11 7 13 11 5 9
-10 -3 -16 2 -16 13 0 10 4 17 7 14 4 -2 10 0 13 5 4 5 -2 12 -11 14 -16 4
-16 5 1 6 13 1 17 6 13 22 -4 16 -3 18 8 9 11 -9 13 -7 9 15 -3 15 1 34 8 43
11 13 11 15 -2 8 -8 -4 -4 2 10 13 14 11 19 21 12 21 -7 0 -10 5 -7 10 4 6 10
8 14 5 5 -2 7 7 5 20 -1 14 2 25 8 25 5 0 8 6 5 13 -2 6 3 17 12 23 13 10 13
14 2 28 -12 14 -12 16 3 10 10 -4 16 -2 14 4 -2 6 6 18 17 27 19 16 19 16 1
10 -18 -5 -19 -4 -4 12 8 10 13 24 11 31 -3 8 1 10 13 5 14 -5 16 -3 11 11 -5
11 2 25 19 41 17 16 21 24 12 27 -10 4 -10 8 1 21 7 9 17 15 21 12 10 -6 8 15
-3 32 -5 8 -1 11 13 8 11 -2 18 0 15 6 -4 5 -1 9 5 9 7 0 7 7 -1 23 -11 20
-11 21 5 8 14 -12 16 -12 10 4 -6 14 -4 16 6 10 10 -6 12 -4 7 8 -4 11 -1 17
8 17 8 0 15 5 15 11 0 5 -6 7 -12 3 -8 -4 -10 -3 -5 2 5 5 14 9 20 9 7 0 11 9
9 19 -2 13 1 17 11 13 10 -4 13 2 11 20 -2 18 1 23 12 19 10 -4 14 0 12 12 -2
10 2 16 11 14 12 -3 12 0 1 13 -11 13 -10 15 4 9 12 -5 16 0 16 16 0 15 5 20
14 17 10 -4 13 -1 9 9 -3 9 0 14 7 12 7 -2 15 4 17 12 4 12 3 12 -5 1 -7 -9
-12 -10 -16 -2 -4 6 -3 11 2 11 17 0 63 50 56 62 -5 7 -3 8 6 3 10 -6 12 -4 7
8 -4 10 -2 16 6 14 7 -1 11 3 10 10 -2 8 4 10 14 6 13 -5 15 -2 11 15 -4 16
-2 19 10 15 11 -5 14 -1 10 14 -3 12 0 20 7 20 8 0 11 -7 7 -16 -3 -9 -1 -13
3 -8 5 4 9 17 10 30 1 14 8 21 19 19 9 -2 15 3 14 10 -2 7 2 12 9 11 7 -2 10
6 8 17 -3 13 1 17 11 13 8 -3 14 0 14 7 0 6 4 8 10 5 6 -4 7 1 3 11 -4 12 -3
15 5 10 7 -4 12 -2 12 4 0 6 5 8 13 4 8 -6 8 -3 -1 9 -12 14 -11 16 7 12 11
-2 20 0 18 4 -1 5 7 17 18 27 12 11 14 15 5 9 -10 -7 -10 -3 3 12 10 12 30 24
43 27 15 4 22 11 18 18 -5 8 -2 9 10 5 9 -4 15 -3 12 2 -3 5 1 12 10 15 9 3
12 11 8 18 -5 9 -2 8 10 -1 9 -8 16 -10 15 -5 -4 21 2 35 11 29 6 -3 13 1 16
9 3 9 11 13 17 9 7 -4 8 0 4 11 -5 12 -3 16 5 13 7 -2 12 -11 10 -18 -2 -8 0
-10 5 -6 4 5 8 16 8 25 0 10 7 16 17 16 11 -1 15 5 13 18 -4 16 -2 18 10 8 9
-7 15 -8 15 -2 0 5 10 12 21 15 15 4 20 11 16 21 -4 9 -2 16 3 16 6 0 10 -5
10 -11 0 -5 5 -7 10 -4 8 5 7 11 -1 21 -10 12 -9 13 5 8 11 -4 23 1 32 12 9
11 12 12 8 4 -7 -13 -5 -13 9 -1 9 7 14 17 11 22 -3 5 2 6 10 3 11 -4 16 0 16
12 1 18 2 18 16 -1 16 -20 16 -20 10 1 -5 18 -2 21 16 20 14 -1 23 5 23 14 0
8 8 14 18 14 9 -1 15 2 12 6 -7 11 22 33 35 25 5 -3 10 1 10 10 0 9 5 13 10
10 6 -3 10 -1 10 5 0 6 5 8 13 4 7 -5 6 0 -3 11 -8 10 -10 16 -4 12 7 -4 17 0
24 8 15 18 45 21 34 3 -4 -7 -3 -8 5 -4 6 4 9 12 6 17 -4 5 0 9 8 9 8 0 22 11
32 24 10 14 26 23 36 21 12 -2 16 1 13 10 -3 7 3 16 15 20 13 4 18 11 14 18
-4 7 1 6 11 -2 14 -12 17 -12 14 -1 -2 8 5 14 17 15 13 0 19 6 17 17 -2 12 2
16 13 12 13 -6 20 6 16 29 0 4 4 7 10 7 6 0 8 -8 5 -17 -6 -17 -5 -17 8 0 15
19 31 24 20 5 -4 -7 -3 -8 5 -4 6 4 9 12 5 17 -3 6 4 13 16 16 16 4 18 8 8 14
-9 6 -6 9 12 10 14 1 29 1 34 0 5 -1 4 5 -3 13 -10 12 -9 14 7 9 14 -3 21 2
25 17 3 12 10 19 15 16 6 -3 12 1 16 9 3 8 12 15 21 15 8 0 15 4 15 9 0 5 14
11 30 15 17 3 29 11 28 18 -2 7 5 12 15 12 10 -1 17 5 17 15 0 12 2 13 9 3 7
-11 9 -10 15 3 3 9 11 13 17 9 7 -4 6 2 -2 17 -11 21 -10 22 3 12 18 -15 29
-7 21 15 -4 13 -1 12 11 -3 9 -11 15 -14 14 -6 -2 7 3 16 11 19 9 3 11 0 6 -8
-5 -9 -4 -11 3 -6 7 4 12 16 12 27 0 11 4 18 9 14 5 -3 13 0 17 6 4 8 9 7 16
-2 7 -10 8 -8 5 8 -6 26 8 40 19 21 5 -8 10 -4 15 10 5 12 16 22 24 22 9 0 14
4 10 9 -3 6 3 8 14 6 15 -3 18 0 14 12 -4 11 -2 14 5 9 6 -4 19 2 29 13 9 11
21 17 26 14 6 -3 7 -1 3 6 -4 6 -13 8 -19 4 -7 -4 -6 0 2 10 7 9 17 15 21 12
4 -3 10 5 13 16 4 15 11 20 22 16 13 -6 14 -3 4 15 -10 18 -9 20 7 14 10 -4
15 -4 11 0 -4 4 0 18 9 32 9 13 11 22 6 18 -6 -3 -14 -1 -18 5 -4 7 -3 9 2 6
14 -8 37 8 40 27 1 9 -2 14 -7 11 -5 -4 -6 1 -3 9 3 9 11 13 18 9 6 -4 5 1 -3
10 -12 16 -12 17 5 10 17 -6 18 -5 4 12 -11 14 -12 17 -1 11 9 -6 12 -5 9 5
-3 8 -1 24 3 37 6 15 5 21 -1 17 -6 -3 -10 -1 -10 4 0 6 4 11 9 11 6 0 6 12 1
30 -5 19 -5 30 1 30 6 0 7 5 4 11 -4 5 -7 32 -7 60 1 27 -3 49 -9 49 -5 0 -9
5 -9 11 0 5 5 7 12 3 7 -5 8 -3 3 6 -6 10 -11 9 -23 -6 -15 -21 -15 -21 4 47
4 14 2 19 -5 15 -6 -4 -11 0 -11 8 0 9 -5 16 -11 16 -6 0 -9 9 -6 20 3 13 1
18 -6 13 -7 -4 -8 0 -4 11 6 14 3 16 -16 11 -15 -4 -18 -4 -8 3 14 10 6 36 -9
27 -5 -3 -12 0 -16 6 -4 7 -3 9 4 5 6 -4 10 1 9 12 0 10 -7 19 -14 19 -6 0 -9
-5 -6 -10 3 -6 1 -7 -5 -3 -7 4 -12 16 -12 27 0 10 -6 19 -14 19 -8 0 -18 5
-22 12 -5 7 -3 8 7 3 12 -7 12 -6 1 7 -7 9 -22 15 -33 13 -11 -2 -17 -1 -15 4
3 4 1 13 -5 21 -6 11 -9 12 -9 2 0 -7 -5 -10 -11 -7 -6 4 -8 13 -5 20 3 9 -2
11 -16 7 -14 -3 -19 -1 -14 6 5 8 2 10 -8 6 -9 -3 -16 -1 -16 6 0 6 -4 8 -10
5 -5 -3 -10 -2 -10 3 0 6 -7 13 -16 16 -8 3 -13 2 -10 -3 7 -10 -19 -23 -28
-14 -3 4 0 13 7 21 9 13 9 14 0 8 -7 -4 -13 -4 -13 1 0 4 -22 7 -50 6 -34 -2
-50 2 -50 10 0 8 -3 8 -9 -2 -6 -9 -10 -10 -16 -2 -5 9 -10 9 -21 0 -11 -9
-14 -8 -14 2 0 12 -2 12 -9 0 -5 -8 -16 -11 -24 -8 -8 3 -19 1 -25 -5 -6 -6
-12 -6 -17 3 -5 7 -4 10 2 6 5 -3 10 0 10 8 0 13 -4 12 -19 -2 -10 -9 -18 -12
-18 -7 0 5 -5 2 -10 -6 -5 -8 -10 -10 -10 -3 0 13 -37 6 -47 -10 -4 -6 -1 -7
8 -2 12 8 12 6 0 -8 -14 -18 -26 -23 -16 -8 3 5 1 12 -5 16 -5 3 -10 2 -10 -4
0 -5 -11 -8 -25 -6 -19 2 -23 -1 -15 -10 8 -9 6 -14 -6 -19 -10 -4 -21 -1 -26
6 -6 11 -8 10 -8 0 0 -7 -4 -10 -10 -7 -6 4 -7 -1 -3 -11 5 -14 2 -16 -15 -12
-16 5 -20 2 -17 -14 3 -16 1 -17 -10 -8 -10 8 -16 6 -27 -9 -8 -12 -18 -18
-23 -13 -4 4 -5 -2 -1 -13 4 -11 4 -16 0 -12 -4 4 -13 2 -21 -4 -7 -6 -13 -8
-13 -3 0 5 -9 -4 -21 -21 -19 -28 -20 -29 -14 -5 5 21 4 22 -5 7 -6 -10 -16
-14 -23 -10 -7 4 -5 -2 3 -12 8 -10 10 -16 3 -12 -7 5 -21 -2 -34 -17 -18 -21
-25 -24 -38 -13 -12 9 -13 9 -7 0 4 -8 2 -13 -4 -13 -6 0 -8 -5 -5 -10 4 -6
-7 -13 -25 -16 -17 -4 -35 -15 -41 -25 -5 -11 -17 -19 -25 -19 -10 0 -14 -6
-11 -14 4 -10 1 -13 -7 -10 -7 3 -16 -2 -19 -10 -4 -9 -13 -13 -22 -10 -8 4
-15 1 -15 -6 0 -7 -7 -10 -16 -6 -15 6 -15 4 -3 -11 9 -11 10 -14 2 -9 -7 4
-13 3 -13 -3 0 -6 -7 -7 -17 -4 -9 4 -14 2 -11 -3 3 -5 0 -15 -8 -22 -11 -10
-14 -10 -14 0 0 10 -2 10 -9 -1 -5 -7 -13 -11 -19 -7 -6 4 -8 -3 -4 -16 5 -20
3 -21 -10 -10 -13 11 -16 10 -14 -5 0 -10 -3 -18 -9 -18 -25 -2 -55 -17 -50
-26 4 -5 -1 -9 -9 -9 -9 0 -16 -6 -16 -12 0 -9 -4 -8 -10 2 -8 13 -10 12 -10
-3 0 -11 -4 -15 -12 -11 -7 5 -9 2 -5 -9 4 -12 0 -14 -18 -11 -18 3 -23 1 -19
-10 3 -8 0 -17 -7 -22 -8 -5 -10 -3 -4 5 6 10 3 11 -14 2 -11 -7 -21 -14 -21
-17 0 -3 5 -2 10 1 17 11 11 0 -12 -19 -20 -18 -21 -18 -15 0 6 16 5 17 -6 4
-7 -8 -26 -26 -42 -40 -22 -18 -26 -20 -15 -5 14 19 14 19 -2 6 -10 -7 -18
-21 -18 -30 0 -14 -2 -14 -10 -1 -8 13 -10 12 -10 -2 0 -10 -6 -17 -12 -15 -7
1 -12 -3 -11 -10 2 -8 -4 -10 -14 -6 -11 4 -14 3 -9 -5 4 -7 -3 -14 -19 -18
-14 -3 -25 -10 -25 -16 0 -5 -5 -6 -12 -2 -8 5 -9 2 -4 -11 5 -15 4 -16 -9 -5
-13 11 -16 11 -13 0 2 -7 -3 -15 -11 -18 -9 -3 -11 0 -6 8 5 8 4 11 -3 6 -6
-3 -9 -15 -7 -26 3 -17 1 -19 -16 -9 -12 6 -23 8 -27 5 -3 -3 1 -6 9 -6 10 -1
9 -5 -5 -15 -10 -8 -23 -12 -27 -9 -4 2 -18 -9 -30 -25 -12 -17 -26 -28 -31
-25 -4 3 -8 -2 -8 -10 0 -8 -4 -18 -10 -21 -6 -3 -7 1 -4 12 3 10 -1 7 -9 -6
-11 -18 -16 -20 -20 -10 -4 10 -6 9 -6 -3 -1 -16 -12 -23 -33 -19 -5 0 -7 -2
-5 -7 1 -4 -2 -9 -8 -11 -18 -8 -33 -26 -28 -33 2 -5 -5 -8 -16 -8 -12 0 -21
-7 -21 -16 0 -9 -5 -12 -12 -8 -8 5 -9 2 -4 -11 6 -16 4 -16 -11 -4 -9 8 -14
9 -10 2 4 -7 -1 -14 -13 -18 -11 -3 -20 -10 -20 -14 0 -10 -35 -51 -44 -51 -4
0 -4 6 0 13 4 6 -3 2 -15 -10 -11 -12 -21 -30 -22 -40 0 -10 -3 -13 -5 -6 -3
7 -12 9 -20 6 -13 -5 -13 -7 -2 -14 10 -7 9 -9 -4 -9 -10 0 -17 -3 -17 -7 3
-20 -2 -26 -11 -13 -8 13 -10 12 -10 -3 0 -10 -4 -16 -8 -13 -4 2 -19 -5 -32
-15 -22 -18 -22 -19 -3 -10 33 17 40 13 13 -6 -14 -10 -29 -17 -34 -15 -5 2
-6 -6 -3 -17 3 -14 1 -18 -10 -14 -8 3 -19 0 -24 -8 -7 -11 -11 -10 -22 5 -12
17 -12 22 -1 34 20 19 17 27 -3 11 -15 -13 -15 -12 0 12 10 14 14 29 10 34 -5
4 -2 5 5 1 7 -4 9 -12 6 -18 -4 -7 -2 -8 5 -4 6 4 9 12 6 17 -4 5 -2 9 4 9 6
0 8 6 5 14 -3 8 4 21 16 29 14 10 19 20 14 28 -5 9 -2 10 11 5 16 -6 16 -4 4
11 -9 11 -10 14 -1 9 7 -4 12 -1 12 9 0 10 5 13 12 9 7 -5 9 -2 6 8 -4 8 2 21
13 29 10 7 19 24 19 37 0 13 4 21 9 17 5 -3 13 0 17 6 4 8 3 9 -4 5 -7 -4 -12
-2 -12 3 0 6 5 11 10 11 6 0 10 7 10 16 0 8 5 12 10 9 9 -5 15 16 11 38 -1 5
4 5 10 1 9 -5 10 -2 6 9 -3 9 -3 16 1 16 20 -3 25 2 12 12 -12 9 -11 10 6 6
22 -4 30 22 11 34 -5 4 0 10 11 13 23 8 37 39 26 58 -6 10 -4 10 8 0 13 -10
17 -10 22 3 4 11 2 14 -7 9 -9 -6 -9 -5 0 8 7 8 9 18 5 22 -4 4 0 6 8 4 9 -2
15 4 15 15 0 10 8 23 18 28 9 6 14 15 11 21 -5 8 -1 9 10 5 14 -5 15 -3 6 13
-9 17 -8 19 7 13 16 -6 17 -5 3 13 -8 10 -11 16 -6 12 4 -3 16 1 25 10 13 13
15 21 7 31 -8 11 -8 13 2 7 7 -4 12 -1 12 8 0 9 8 16 18 16 14 0 15 2 2 10
-10 6 -11 10 -3 10 7 0 15 11 19 25 3 14 10 25 16 25 5 0 6 6 2 13 -5 8 -2 7
9 -2 16 -13 17 -12 8 11 -8 21 -7 25 7 24 11 -1 16 5 14 18 -2 12 1 16 9 10 9
-5 10 -2 6 9 -3 9 -3 16 1 16 19 -3 25 2 12 11 -13 8 -13 10 2 10 9 0 20 5 24
12 5 7 3 8 -5 3 -10 -5 -9 -2 0 13 7 12 17 18 23 15 5 -3 6 -1 3 5 -9 14 3 43
14 36 5 -3 9 2 9 11 0 8 7 18 16 22 13 5 13 7 2 14 -10 7 -10 9 0 9 6 0 12 6
12 14 0 8 5 18 12 22 7 4 8 3 4 -4 -4 -7 -2 -12 4 -12 6 0 9 10 6 23 -4 23 16
51 30 39 4 -4 4 -1 0 5 -4 7 -1 23 6 35 7 13 11 27 10 31 -1 5 2 6 8 2 16 -10
33 5 21 19 -8 9 -3 18 19 35 16 12 29 25 29 29 -4 21 2 32 14 26 7 -5 6 0 -3
11 -8 10 -10 16 -4 12 7 -4 18 1 25 10 10 12 10 14 2 9 -19 -11 -16 9 4 25 15
12 16 12 8 -1 -8 -13 -7 -13 8 -1 14 11 15 16 5 29 -8 10 -9 13 -2 9 7 -4 19
5 29 19 9 15 12 23 6 20 -6 -4 -11 -2 -11 3 0 6 6 11 14 11 8 0 18 5 22 12 5
7 2 9 -7 4 -8 -5 -8 -2 2 6 9 7 14 19 11 27 -3 9 0 11 8 6 10 -6 12 -3 8 13
-4 15 -2 20 11 17 11 -2 17 4 16 18 0 12 3 22 6 22 3 0 17 14 32 30 24 28 24
31 9 48 -15 17 -15 17 3 11 13 -5 16 -4 11 5 -5 7 -2 10 5 9 7 -2 14 3 15 10
1 6 2 17 3 23 0 5 5 8 9 5 4 -2 14 4 21 16 7 11 8 17 2 13 -6 -3 -11 -1 -11 4
0 6 7 11 15 11 9 0 15 9 15 25 0 16 5 23 13 19 7 -2 13 4 15 16 4 43 6 49 14
44 5 -3 5 -10 2 -16 -5 -7 -2 -8 5 -3 7 4 10 16 8 27 -5 16 -2 19 14 15 15 -4
17 -2 10 12 -9 17 0 44 13 41 4 -1 12 1 19 3 9 4 9 6 0 6 -7 1 -13 6 -13 12 0
6 7 8 16 5 14 -5 15 -4 5 8 -9 11 -9 16 0 22 8 4 9 3 5 -4 -4 -7 -5 -12 -2
-12 3 0 10 10 17 21 9 17 8 20 -2 14 -8 -6 -10 -4 -5 4 5 7 14 10 22 7 8 -3
11 0 7 10 -3 7 0 14 6 14 6 0 11 5 11 11 0 5 -6 7 -12 4 -7 -4 -4 0 6 9 10 8
23 13 29 9 6 -3 7 -1 3 6 -4 6 -13 9 -19 6 -7 -3 -2 2 11 11 12 9 22 25 22 35
0 11 6 18 13 17 6 -2 11 3 9 10 -3 14 32 70 56 90 13 10 13 12 2 12 -9 0 -6 6
8 16 12 8 21 23 20 32 -2 9 2 16 9 15 7 -2 10 6 8 17 -2 12 0 18 6 15 5 -4 9
-1 9 5 0 7 7 9 16 6 13 -5 14 -3 6 7 -7 8 -7 18 -2 27 5 8 6 19 2 25 -3 5 3 3
14 -5 10 -8 16 -10 12 -6 -4 5 -2 16 5 24 9 13 9 14 0 8 -9 -5 -11 -2 -7 8 3
9 11 13 17 9 7 -4 8 0 3 12 -5 15 -4 16 8 6 12 -10 13 -8 9 10 -5 17 -3 21 9
16 12 -4 14 -1 10 15 -3 14 -1 19 5 15 7 -5 9 0 6 13 -4 14 0 20 11 20 11 0
16 9 16 26 0 19 4 25 14 21 10 -4 14 0 11 14 -2 10 -1 19 3 19 4 0 13 9 20 21
8 12 9 18 3 14 -17 -10 -13 7 5 20 15 10 15 13 -1 29 -17 17 -17 17 1 14 21
-3 25 20 11 61 -6 20 -5 22 7 12 13 -11 14 -9 8 16 -4 15 -7 46 -6 68 1 22 -4
46 -10 54 -8 11 -8 13 2 7 8 -5 12 1 12 19 0 15 -4 24 -10 20 -14 -9 -12 8 3
24 9 11 9 13 0 7 -8 -4 -13 -1 -13 8 0 9 -6 16 -12 16 -9 0 -8 4 2 10 9 6 10
10 3 10 -6 0 -10 9 -8 20 4 21 -11 28 -17 8 -3 -7 -7 -2 -10 10 -4 12 -2 20 3
16 5 -3 6 2 3 10 -3 9 -10 16 -15 16 -5 0 -9 9 -9 20 0 14 -7 20 -22 21 -13 0
-17 3 -10 6 6 2 12 9 12 14 0 6 -4 8 -8 5 -10 -6 -52 39 -52 56 0 6 -3 8 -7 4
-4 -3 -13 4 -21 16 -11 19 -12 20 -8 3 6 -20 6 -20 -9 -1 -8 11 -15 24 -15 29
0 5 -7 4 -16 -3 -8 -8 -14 -9 -13 -4 4 22 -2 32 -18 30 -10 0 -17 5 -15 12 2
10 -2 10 -18 2 -16 -8 -20 -8 -20 4 0 20 -17 29 -51 28 -16 0 -31 3 -34 8 -3
5 -17 5 -32 -1 -23 -8 -24 -8 -13 6 11 13 10 14 -5 9 -14 -6 -16 -4 -10 7 7
12 6 12 -7 1 -13 -10 -17 -10 -21 0 -4 10 -6 10 -6 -1 -1 -11 -4 -11 -16 -1
-11 9 -15 9 -15 1 0 -8 -5 -9 -17 -2 -10 5 -26 5 -39 1 -12 -5 -25 -6 -28 -3
-3 4 -6 0 -6 -7 0 -9 -7 -7 -22 6 -13 10 -17 12 -11 4 8 -10 9 -21 3 -30 -8
-13 -10 -12 -10 2 0 9 -4 20 -10 23 -5 3 -7 0 -4 -9 4 -11 0 -14 -13 -12 -18
4 -106 -32 -121 -49 -4 -5 -1 -5 7 0 9 5 12 4 7 -3 -3 -6 -18 -8 -33 -6 -24 5
-25 3 -12 -12 11 -14 11 -16 0 -10 -8 5 -16 3 -21 -4 -5 -7 -19 -14 -32 -15
-12 -1 -22 -8 -21 -14 2 -6 -2 -11 -8 -11 -5 0 -7 -4 -4 -10 3 -5 1 -10 -5
-10 -6 0 -8 -4 -5 -10 4 -6 -1 -7 -12 -3 -10 3 -15 2 -11 -2 5 -5 -1 -15 -12
-22 -11 -8 -18 -19 -15 -24 4 -5 2 -9 -4 -9 -6 0 -13 -11 -17 -25 -3 -14 -14
-25 -23 -26 -10 0 -11 -2 -3 -6 8 -3 5 -11 -10 -25 -13 -11 -17 -16 -9 -12 9
4 12 2 9 -7 -3 -8 -10 -14 -16 -14 -5 0 -14 -3 -18 -7 -4 -5 -2 -8 4 -8 7 0 5
-11 -6 -29 -9 -16 -20 -27 -24 -25 -5 3 -8 0 -8 -7 0 -6 -8 -18 -17 -26 -10
-8 -12 -12 -6 -8 9 4 11 1 7 -9 -3 -9 -12 -16 -20 -16 -17 0 -18 -17 -1 -23 9
-4 9 -6 -1 -6 -8 -1 -10 -6 -6 -13 5 -9 2 -8 -9 1 -15 12 -17 12 -11 -3 3 -9
1 -16 -5 -16 -6 0 -10 -6 -8 -12 1 -7 -4 -12 -11 -10 -8 1 -11 -6 -8 -23 3
-13 0 -28 -6 -31 -6 -4 -8 -2 -5 3 4 6 1 13 -7 16 -9 4 -12 0 -9 -13 3 -10 -4
-26 -16 -37 -12 -11 -19 -28 -16 -40 3 -17 0 -20 -12 -16 -13 5 -15 2 -11 -15
4 -16 2 -22 -10 -22 -8 0 -12 -3 -8 -7 3 -4 -4 -13 -16 -21 -13 -7 -15 -11 -6
-8 15 4 16 2 6 -19 -6 -13 -15 -22 -19 -19 -5 3 -9 -2 -9 -11 0 -11 -5 -15
-15 -11 -13 4 -14 2 -5 -14 8 -15 8 -20 -1 -18 -6 2 -14 -3 -17 -11 -3 -9 0
-11 8 -6 9 5 11 4 6 -4 -4 -6 -12 -8 -18 -5 -8 5 -9 -1 -5 -17 6 -23 5 -23 -8
-5 -13 18 -14 16 -12 -16 3 -31 1 -35 -20 -32 -20 2 -22 0 -12 -12 11 -13 5
-19 -15 -15 -5 1 -3 -5 4 -14 7 -9 9 -15 4 -13 -5 2 -10 -1 -12 -7 -2 -5 -10
-14 -18 -18 -8 -4 -14 -15 -14 -23 0 -10 -5 -12 -12 -8 -8 5 -7 0 2 -11 8 -10
10 -16 4 -12 -7 4 -15 0 -18 -9 -3 -9 -11 -12 -18 -8 -9 5 -9 3 1 -9 12 -15
11 -17 -3 -17 -10 0 -14 -4 -11 -10 3 -5 2 -10 -4 -10 -6 0 -8 -8 -4 -17 3
-10 3 -15 -1 -11 -5 4 -14 1 -21 -5 -10 -9 -10 -15 -1 -26 9 -12 8 -13 -3 -6
-11 6 -13 4 -8 -9 4 -9 3 -15 -1 -12 -14 8 -35 -11 -39 -36 -6 -39 -12 -48
-29 -41 -10 4 -14 14 -11 29 2 14 0 21 -7 18 -7 -3 -12 5 -13 16 -1 11 3 20 8
20 6 0 7 -5 3 -12 -4 -7 -3 -8 4 -4 13 8 5 36 -12 36 -6 0 -3 5 7 11 9 6 15
15 11 20 -3 6 -6 44 -5 85 1 42 -3 73 -8 70 -10 -6 -8 21 3 47 5 10 3 23 -4
32 -13 15 -1 21 16 8 5 -5 6 -4 2 2 -12 15 -9 27 5 19 6 -4 4 1 -5 12 -11 13
-14 24 -8 34 6 10 4 21 -7 33 -14 14 -14 17 -2 12 11 -4 14 2 13 27 -3 49 -3
50 -14 43 -6 -3 -7 1 -4 10 5 13 9 13 23 3 10 -8 9 -4 -3 10 -21 24 -31 56
-15 46 5 -3 7 -10 4 -15 -4 -5 -1 -9 5 -9 7 0 9 8 5 20 -4 12 -2 20 5 20 6 0
8 5 4 11 -5 8 -9 8 -14 -1 -5 -8 -9 -5 -13 9 -3 12 -2 19 3 16 4 -3 11 2 14
11 4 11 2 15 -7 11 -10 -4 -13 4 -12 26 1 20 8 33 21 38 16 6 16 8 2 8 -9 1
-20 5 -23 11 -3 6 1 7 10 4 11 -4 14 -2 9 9 -3 8 0 18 5 22 6 3 9 11 5 16 -3
5 -9 7 -14 4 -4 -3 -10 2 -14 10 -3 8 0 17 6 21 6 4 8 3 5 -3 -3 -5 0 -10 7
-10 10 0 10 6 2 23 -8 16 -13 19 -19 11 -6 -8 -7 -7 -4 3 2 8 13 14 23 13 18
-1 18 -1 0 13 -11 8 -15 14 -9 14 13 0 11 25 -2 37 -4 4 -5 3 -1 -4 3 -6 2
-14 -3 -17 -18 -11 -5 24 15 39 18 14 18 14 -4 10 -20 -3 -22 -2 -12 10 7 8
17 12 24 8 6 -3 3 3 -6 14 -21 23 -24 38 -5 27 7 -5 6 -1 -3 10 -17 22 -21 44
-10 51 5 3 7 -4 5 -15 -2 -11 1 -20 7 -20 5 0 8 7 5 15 -4 8 -2 17 4 21 7 4 6
10 -1 19 -6 7 -9 25 -6 39 3 15 1 24 -5 21 -5 -4 -9 1 -9 10 0 10 5 13 12 9 7
-5 8 -3 3 6 -4 7 -2 16 5 20 9 6 7 10 -9 15 -12 4 -21 15 -21 26 0 11 4 17 10
14 6 -3 7 1 4 9 -3 9 -11 13 -18 9 -6 -4 -5 1 3 10 12 15 11 17 -5 18 -18 0
-18 1 1 9 19 8 19 9 -2 9 -13 1 -23 6 -23 12 0 5 4 7 10 4 6 -3 7 1 4 9 -3 9
-10 16 -16 16 -5 0 -6 5 -3 10 3 6 -1 10 -9 10 -9 0 -16 4 -16 10 0 5 8 7 18
4 14 -5 14 -4 -2 6 -15 10 -16 14 -5 22 11 7 9 8 -6 6 -14 -2 -20 2 -19 15 1
9 -4 17 -12 17 -13 0 -18 12 -15 33 0 4 -9 7 -21 7 -19 0 -20 2 -8 10 13 8 12
10 -3 10 -10 0 -20 7 -24 16 -3 8 -12 13 -20 10 -8 -3 -11 -1 -8 4 6 9 -9 15
-29 11 -5 -1 -4 4 2 11 9 11 6 14 -10 15 -12 1 -26 7 -32 14 -8 9 -7 10 3 4
10 -6 12 -4 7 4 -6 9 -12 9 -24 -1 -10 -7 -14 -8 -10 -4 11 13 -25 35 -61 38
-21 1 -30 7 -27 15 8 19 -4 16 -21 -4 -10 -14 -13 -14 -11 -3 2 8 -3 14 -9 13
-7 -2 -13 1 -13 6 0 6 -12 6 -30 1 -19 -5 -28 -5 -25 1 7 11 -24 7 -44 -5 -10
-6 -12 -5 -7 2 8 13 -6 17 -17 5 -10 -9 -57 -10 -57 -1 0 9 -8 9 -28 1z m649
-580 c13 -16 12 -17 -3 -4 -10 7 -18 15 -18 17 0 8 8 3 21 -13z m719 -23 c0
-5 -5 -10 -11 -10 -5 0 -7 5 -4 10 3 6 8 10 11 10 2 0 4 -4 4 -10z m-710 -284
c0 -2 -8 -10 -17 -17 -16 -13 -17 -12 -4 4 13 16 21 21 21 13z m430 -176 c0
-5 -4 -10 -10 -10 -5 0 -10 5 -10 10 0 6 5 10 10 10 6 0 10 -4 10 -10z m-444
-125 c-1 -8 -5 -17 -8 -21 -5 -4 -4 16 1 34 3 9 9 -1 7 -13z m-1 -123 c-3 -3
-11 0 -18 7 -9 10 -8 11 6 5 10 -3 15 -9 12 -12z m0 -272 c3 -5 1 -10 -4 -10
-6 0 -11 5 -11 10 0 6 2 10 4 10 3 0 8 -4 11 -10z m1005 -620 c0 -5 -5 -10
-11 -10 -5 0 -7 5 -4 10 3 6 8 10 11 10 2 0 4 -4 4 -10z m647 -512 c-3 -8 -6
-5 -6 6 -1 11 2 17 5 13 3 -3 4 -12 1 -19z m-1067 -737 c0 -5 -7 -12 -16 -15
-14 -5 -15 -4 -4 9 14 17 20 19 20 6z m1830 -3256 c0 -1 -10 -10 -22 -21 -14
-12 -18 -13 -10 -3 6 9 10 18 7 21 -3 2 2 5 10 5 8 0 15 -1 15 -2z m-3259
-102 c13 -16 12 -17 -3 -4 -17 13 -22 21 -14 21 2 0 10 -8 17 -17z m3134 -2
c3 -5 2 -12 -3 -15 -5 -3 -9 1 -9 9 0 17 3 19 12 6z"/>
<path d="M3064 6180 c0 -13 4 -16 10 -10 7 7 7 13 0 20 -6 6 -10 3 -10 -10z"/>
<path d="M3060 5758 c0 -4 4 -8 9 -8 6 0 12 4 15 8 3 5 -1 9 -9 9 -8 0 -15 -4
-15 -9z"/>
<path d="M3080 5471 c0 -6 4 -13 10 -16 6 -3 7 1 4 9 -7 18 -14 21 -14 7z"/>
<path d="M1967 4939 c7 -7 15 -10 18 -7 3 3 -2 9 -12 12 -14 6 -15 5 -6 -5z"/>
<path d="M3789 4483 c-13 -16 -12 -17 4 -4 9 7 17 15 17 17 0 8 -8 3 -21 -13z"/>
<path d="M4521 4344 c0 -11 3 -14 6 -6 3 7 2 16 -1 19 -3 4 -6 -2 -5 -13z"/>
<path d="M4585 3050 c-3 -5 -1 -10 4 -10 6 0 11 5 11 10 0 6 -2 10 -4 10 -3 0
-8 -4 -11 -10z"/>
<path d="M5315 1270 c3 -5 8 -10 11 -10 2 0 4 5 4 10 0 6 -5 10 -11 10 -5 0
-7 -4 -4 -10z"/>
</g>
</svg>
