<svg xmlns="http://www.w3.org/2000/svg" xmlns:xlink="http://www.w3.org/1999/xlink" width="500" zoomAndPan="magnify" viewBox="0 0 375 374.999991" height="500" preserveAspectRatio="xMidYMid meet" version="1.0"><defs><clipPath id="c4fadec66f"><path d="M 0 24.375 L 375 24.375 L 375 350.625 L 0 350.625 Z M 0 24.375 " clip-rule="nonzero"/></clipPath></defs><g clip-path="url(#c4fadec66f)"><path fill="#000000" d="M 372.984375 101.234375 L 313.820312 49.261719 C 313.371094 48.867188 312.859375 48.574219 312.289062 48.382812 L 241.78125 24.667969 C 241.753906 24.65625 241.722656 24.652344 241.695312 24.644531 C 241.605469 24.613281 241.515625 24.589844 241.425781 24.566406 C 241.363281 24.550781 241.300781 24.539062 241.238281 24.527344 C 241.164062 24.511719 241.09375 24.5 241.019531 24.488281 C 240.9375 24.472656 240.859375 24.464844 240.777344 24.457031 C 240.71875 24.453125 240.660156 24.445312 240.605469 24.441406 C 240.515625 24.4375 240.425781 24.4375 240.332031 24.4375 C 240.285156 24.4375 240.234375 24.4375 240.183594 24.4375 C 240.089844 24.441406 239.996094 24.449219 239.902344 24.457031 C 239.851562 24.460938 239.804688 24.46875 239.753906 24.476562 C 239.664062 24.488281 239.578125 24.503906 239.488281 24.519531 C 239.433594 24.53125 239.378906 24.542969 239.320312 24.554688 C 239.242188 24.574219 239.167969 24.59375 239.089844 24.617188 C 239.023438 24.636719 238.960938 24.65625 238.898438 24.675781 C 238.835938 24.695312 238.765625 24.726562 238.695312 24.75 C 238.628906 24.777344 238.5625 24.804688 238.496094 24.835938 C 238.429688 24.867188 238.371094 24.894531 238.308594 24.925781 C 238.246094 24.960938 238.179688 24.996094 238.113281 25.03125 C 238.050781 25.066406 237.988281 25.109375 237.925781 25.152344 C 237.867188 25.1875 237.8125 25.222656 237.757812 25.261719 C 237.679688 25.316406 237.609375 25.375 237.535156 25.433594 C 237.496094 25.464844 237.457031 25.492188 237.421875 25.523438 C 237.324219 25.605469 237.234375 25.695312 237.144531 25.785156 C 237.132812 25.796875 237.121094 25.808594 237.105469 25.820312 C 229.734375 33.527344 209.339844 38.914062 187.515625 38.914062 C 165.691406 38.914062 145.296875 33.527344 137.925781 25.820312 L 137.910156 25.804688 C 137.8125 25.707031 137.710938 25.609375 137.605469 25.519531 C 137.578125 25.492188 137.546875 25.472656 137.515625 25.445312 C 137.433594 25.378906 137.355469 25.316406 137.269531 25.253906 C 137.222656 25.222656 137.175781 25.195312 137.128906 25.164062 C 137.054688 25.117188 136.984375 25.070312 136.90625 25.027344 C 136.855469 24.996094 136.796875 24.96875 136.742188 24.9375 C 136.671875 24.902344 136.597656 24.863281 136.523438 24.828125 C 136.46875 24.804688 136.414062 24.785156 136.359375 24.761719 C 136.277344 24.730469 136.195312 24.699219 136.113281 24.667969 C 136.066406 24.652344 136.015625 24.640625 135.96875 24.625 C 135.875 24.597656 135.78125 24.570312 135.6875 24.550781 C 135.648438 24.539062 135.609375 24.53125 135.570312 24.523438 C 135.464844 24.503906 135.359375 24.484375 135.253906 24.472656 L 135.15625 24.460938 C 135.046875 24.449219 134.933594 24.441406 134.824219 24.4375 C 134.789062 24.4375 134.757812 24.4375 134.726562 24.4375 C 134.621094 24.4375 134.511719 24.4375 134.402344 24.445312 C 134.363281 24.449219 134.320312 24.453125 134.28125 24.457031 C 134.1875 24.464844 134.089844 24.476562 133.996094 24.492188 C 133.9375 24.5 133.878906 24.511719 133.820312 24.523438 C 133.742188 24.535156 133.667969 24.554688 133.59375 24.570312 C 133.519531 24.589844 133.433594 24.617188 133.351562 24.640625 C 133.320312 24.652344 133.285156 24.65625 133.25 24.667969 L 62.742188 48.382812 C 62.171875 48.574219 61.660156 48.867188 61.210938 49.261719 L 2.046875 101.234375 C 1.617188 101.609375 1.273438 102.050781 1.015625 102.558594 C 0.753906 103.066406 0.597656 103.601562 0.542969 104.167969 C 0.488281 104.734375 0.535156 105.289062 0.691406 105.835938 C 0.847656 106.386719 1.101562 106.882812 1.445312 107.335938 L 46.332031 165.90625 C 46.511719 166.140625 46.710938 166.355469 46.933594 166.546875 C 47.152344 166.742188 47.390625 166.914062 47.648438 167.0625 C 47.902344 167.207031 48.167969 167.328125 48.449219 167.425781 C 48.726562 167.519531 49.011719 167.585938 49.304688 167.625 C 49.597656 167.664062 49.890625 167.671875 50.183594 167.652344 C 50.476562 167.636719 50.765625 167.585938 51.050781 167.511719 C 51.335938 167.433594 51.609375 167.332031 51.875 167.203125 C 52.140625 167.070312 52.386719 166.917969 52.621094 166.738281 L 83.8125 142.835938 L 83.8125 326.824219 C 83.8125 327.605469 84 328.335938 84.382812 329.015625 C 84.761719 329.695312 85.285156 330.242188 85.949219 330.648438 C 86.289062 330.859375 94.492188 335.835938 111.195312 340.761719 C 138.691406 348.878906 167.875 350.582031 187.515625 350.582031 C 223.097656 350.582031 248.660156 345.242188 263.839844 340.761719 C 280.539062 335.835938 288.742188 330.859375 289.082031 330.648438 C 289.746094 330.242188 290.269531 329.695312 290.648438 329.015625 C 291.03125 328.335938 291.21875 327.605469 291.222656 326.824219 L 291.222656 142.835938 L 322.410156 166.738281 C 322.644531 166.917969 322.890625 167.070312 323.15625 167.203125 C 323.421875 167.332031 323.695312 167.4375 323.980469 167.511719 C 324.265625 167.585938 324.554688 167.636719 324.847656 167.65625 C 325.140625 167.671875 325.433594 167.664062 325.726562 167.625 C 326.019531 167.585938 326.304688 167.519531 326.582031 167.425781 C 326.863281 167.328125 327.128906 167.207031 327.386719 167.0625 C 327.640625 166.914062 327.878906 166.742188 328.101562 166.546875 C 328.320312 166.355469 328.523438 166.140625 328.699219 165.90625 L 373.585938 107.335938 C 373.933594 106.882812 374.183594 106.386719 374.339844 105.835938 C 374.496094 105.289062 374.546875 104.734375 374.488281 104.167969 C 374.433594 103.601562 374.277344 103.0625 374.015625 102.558594 C 373.757812 102.050781 373.414062 101.609375 372.984375 101.234375 Z M 187.515625 60.96875 C 185.570312 60.960938 183.632812 60.847656 181.703125 60.621094 C 179.769531 60.398438 177.855469 60.066406 175.960938 59.628906 C 174.066406 59.191406 172.203125 58.652344 170.371094 58.007812 C 168.535156 57.359375 166.742188 56.613281 164.992188 55.769531 C 163.242188 54.925781 161.542969 53.984375 159.894531 52.949219 C 158.25 51.914062 156.667969 50.789062 155.144531 49.578125 C 153.625 48.367188 152.175781 47.074219 150.800781 45.699219 C 149.421875 44.328125 148.128906 42.882812 146.910156 41.363281 C 157.769531 45.484375 172.09375 47.886719 187.515625 47.886719 C 202.9375 47.886719 217.261719 45.484375 228.121094 41.363281 C 226.90625 42.882812 225.609375 44.328125 224.230469 45.699219 C 222.855469 47.074219 221.40625 48.367188 219.886719 49.578125 C 218.367188 50.789062 216.78125 51.914062 215.136719 52.949219 C 213.488281 53.984375 211.792969 54.925781 210.039062 55.769531 C 208.289062 56.613281 206.496094 57.359375 204.664062 58.007812 C 202.828125 58.652344 200.964844 59.191406 199.070312 59.628906 C 197.175781 60.066406 195.261719 60.398438 193.328125 60.621094 C 191.398438 60.847656 189.460938 60.960938 187.515625 60.96875 Z M 50.726562 156.886719 L 11.121094 105.207031 L 63.394531 59.289062 C 67.886719 66.058594 71.875 74.371094 75.28125 84.085938 C 80.441406 98.808594 83.273438 114.765625 83.734375 131.585938 Z M 282.246094 324.15625 C 274.242188 328.222656 243.621094 341.605469 187.515625 341.605469 C 153.273438 341.605469 128.75 336.542969 114.207031 332.292969 C 103.1875 329.074219 96.078125 325.828125 92.785156 324.15625 L 92.785156 133.746094 C 92.785156 133.597656 92.769531 133.453125 92.753906 133.308594 C 92.445312 114.839844 89.421875 97.296875 83.753906 81.121094 C 80.207031 71.011719 76.03125 62.246094 71.300781 54.972656 L 132.160156 34.503906 C 134.414062 39.386719 137.265625 43.894531 140.710938 48.023438 C 144.15625 52.15625 148.078125 55.765625 152.480469 58.859375 C 155.027344 60.660156 157.695312 62.25 160.488281 63.636719 C 163.28125 65.023438 166.164062 66.1875 169.136719 67.128906 C 172.109375 68.066406 175.136719 68.773438 178.21875 69.246094 C 181.296875 69.71875 184.398438 69.953125 187.515625 69.945312 C 190.632812 69.953125 193.734375 69.71875 196.816406 69.246094 C 199.894531 68.773438 202.921875 68.066406 205.894531 67.128906 C 208.867188 66.1875 211.75 65.023438 214.542969 63.636719 C 217.335938 62.25 220.003906 60.660156 222.550781 58.859375 C 226.953125 55.765625 230.875 52.15625 234.320312 48.023438 C 237.769531 43.894531 240.617188 39.386719 242.871094 34.503906 L 303.730469 54.972656 C 299 62.246094 294.824219 71.007812 291.28125 81.117188 C 285.609375 97.292969 282.585938 114.839844 282.277344 133.308594 C 282.261719 133.453125 282.246094 133.597656 282.246094 133.746094 Z M 324.308594 156.886719 L 291.296875 131.589844 C 291.753906 114.769531 294.589844 98.8125 299.75 84.089844 C 303.15625 74.375 307.144531 66.058594 311.636719 59.289062 L 363.910156 105.207031 Z M 324.308594 156.886719 " fill-opacity="1" fill-rule="nonzero"/></g></svg>